<svg xmlns="http://www.w3.org/2000/svg" width="241.83" height="35" viewBox="0 0 241.83 35"><rect class="svg__rect" x="0" y="0" width="138.72" height="35" fill="#000000"/><rect class="svg__rect" x="136.72" y="0" width="105.11000000000001" height="35" fill="#8FC965"/><path class="svg__text" d="M15.69 22L14.22 22L14.22 13.47L16.14 13.47L18.60 20.01L21.06 13.47L22.97 13.47L22.97 22L21.49 22L21.49 19.19L21.64 15.43L19.12 22L18.06 22L15.55 15.43L15.69 19.19L15.69 22ZM35.16 22L33.69 22L33.69 13.47L35.61 13.47L38.07 20.01L40.53 13.47L42.44 13.47L42.44 22L40.97 22L40.97 19.19L41.11 15.43L38.59 22L37.53 22L35.02 15.43L35.16 19.19L35.16 22ZM54.72 22L53.25 22L53.25 13.47L54.72 13.47L54.72 22ZM61.02 22L59.53 22L59.53 13.47L61.02 13.47L64.83 19.54L64.83 13.47L66.30 13.47L66.30 22L64.82 22L61.02 15.95L61.02 22ZM72.72 14.66L70.09 14.66L70.09 13.47L76.85 13.47L76.85 14.66L74.19 14.66L74.19 22L72.72 22L72.72 14.66ZM86.19 22L80.61 22L80.61 13.47L86.15 13.47L86.15 14.66L82.09 14.66L82.09 17.02L85.60 17.02L85.60 18.19L82.09 18.19L82.09 20.82L86.19 20.82L86.19 22ZM91.87 22L90.38 22L90.38 13.47L93.38 13.47Q94.86 13.47 95.66 14.13Q96.47 14.79 96.47 16.05L96.47 16.05Q96.47 16.90 96.05 17.48Q95.64 18.06 94.90 18.37L94.90 18.37L96.82 21.92L96.82 22L95.23 22L93.52 18.71L91.87 18.71L91.87 22ZM91.87 14.66L91.87 17.52L93.39 17.52Q94.14 17.52 94.56 17.15Q94.98 16.77 94.98 16.11L94.98 16.11Q94.98 15.43 94.59 15.05Q94.20 14.68 93.43 14.66L93.43 14.66L91.87 14.66ZM102.42 22L100.95 22L100.95 13.47L102.42 13.47L102.42 22ZM106.97 18.00L106.97 18.00L106.97 17.52Q106.97 16.28 107.41 15.32Q107.85 14.37 108.66 13.86Q109.46 13.35 110.50 13.35Q111.55 13.35 112.35 13.85Q113.16 14.35 113.60 15.29Q114.04 16.23 114.04 17.48L114.04 17.48L114.04 17.96Q114.04 19.21 113.61 20.16Q113.18 21.10 112.37 21.61Q111.56 22.12 110.52 22.12L110.52 22.12Q109.48 22.12 108.67 21.61Q107.86 21.10 107.41 20.17Q106.97 19.23 106.97 18.00ZM108.45 17.46L108.45 17.96Q108.45 19.36 109.00 20.13Q109.54 20.90 110.52 20.90L110.52 20.90Q111.50 20.90 112.03 20.15Q112.56 19.40 112.56 17.96L112.56 17.96L112.56 17.51Q112.56 16.09 112.02 15.34Q111.49 14.58 110.50 14.58L110.50 14.58Q109.54 14.58 109.00 15.33Q108.46 16.09 108.45 17.46L108.45 17.46ZM119.99 22L118.51 22L118.51 13.47L121.51 13.47Q122.98 13.47 123.79 14.13Q124.59 14.79 124.59 16.05L124.59 16.05Q124.59 16.90 124.18 17.48Q123.76 18.06 123.03 18.37L123.03 18.37L124.94 21.92L124.94 22L123.35 22L121.64 18.71L119.99 18.71L119.99 22ZM119.99 14.66L119.99 17.52L121.51 17.52Q122.26 17.52 122.69 17.15Q123.11 16.77 123.11 16.11L123.11 16.11Q123.11 15.43 122.72 15.05Q122.33 14.68 121.56 14.66L121.56 14.66L119.99 14.66Z" fill="#FFFFFF"/><path class="svg__text" d="M153.29 22L150.91 22L150.91 13.60L154.75 13.60Q155.89 13.60 156.73 13.98Q157.57 14.35 158.03 15.06Q158.48 15.76 158.48 16.71L158.48 16.71Q158.48 17.66 158.03 18.35Q157.57 19.05 156.73 19.42Q155.89 19.80 154.75 19.80L154.75 19.80L153.29 19.80L153.29 22ZM153.29 15.47L153.29 17.93L154.61 17.93Q155.34 17.93 155.71 17.61Q156.08 17.29 156.08 16.71L156.08 16.71Q156.08 16.12 155.71 15.80Q155.34 15.47 154.61 15.47L154.61 15.47L153.29 15.47ZM165.61 22L163.24 22L163.24 13.60L167.08 13.60Q168.22 13.60 169.06 13.98Q169.90 14.35 170.36 15.06Q170.81 15.76 170.81 16.71L170.81 16.71Q170.81 17.62 170.38 18.30Q169.96 18.98 169.17 19.36L169.17 19.36L170.98 22L168.43 22L166.91 19.77L165.61 19.77L165.61 22ZM165.61 15.47L165.61 17.93L166.93 17.93Q167.67 17.93 168.04 17.61Q168.41 17.29 168.41 16.71L168.41 16.71Q168.41 16.12 168.04 15.79Q167.67 15.47 166.93 15.47L166.93 15.47L165.61 15.47ZM175.17 17.80L175.17 17.80Q175.17 16.55 175.78 15.55Q176.38 14.56 177.44 14.00Q178.51 13.43 179.84 13.43L179.84 13.43Q181.17 13.43 182.23 14.00Q183.29 14.56 183.90 15.55Q184.51 16.55 184.51 17.80L184.51 17.80Q184.51 19.05 183.90 20.04Q183.29 21.04 182.23 21.60Q181.17 22.17 179.84 22.17L179.84 22.17Q178.51 22.17 177.44 21.60Q176.38 21.04 175.78 20.04Q175.17 19.05 175.17 17.80ZM177.57 17.80L177.57 17.80Q177.57 18.51 177.87 19.05Q178.17 19.60 178.69 19.90Q179.20 20.20 179.84 20.20L179.84 20.20Q180.47 20.20 180.99 19.90Q181.51 19.60 181.80 19.05Q182.10 18.51 182.10 17.80L182.10 17.80Q182.10 17.09 181.80 16.54Q181.51 16 180.99 15.70Q180.47 15.40 179.84 15.40L179.84 15.40Q179.20 15.40 178.68 15.70Q178.17 16 177.87 16.54Q177.57 17.09 177.57 17.80ZM188.16 20.93L188.16 20.93L189.45 19.40Q190.12 20.27 190.89 20.27L190.89 20.27Q190.90 20.27 190.90 20.27L190.90 20.27Q191.42 20.27 191.69 19.96Q191.96 19.65 191.96 19.05L191.96 19.05L191.96 15.44L189.06 15.44L189.06 13.60L194.31 13.60L194.31 18.91Q194.31 20.54 193.49 21.36Q192.67 22.17 191.07 22.17L191.07 22.17Q190.15 22.17 189.39 21.85Q188.64 21.53 188.16 20.93ZM206.14 22L199.40 22L199.40 13.60L205.99 13.60L205.99 15.44L201.76 15.44L201.76 16.85L205.49 16.85L205.49 18.63L201.76 18.63L201.76 20.17L206.14 20.17L206.14 22ZM210.52 17.80L210.52 17.80Q210.52 16.54 211.12 15.54Q211.72 14.55 212.77 13.99Q213.82 13.43 215.14 13.43L215.14 13.43Q216.29 13.43 217.22 13.84Q218.14 14.25 218.75 15.02L218.75 15.02L217.24 16.39Q216.43 15.40 215.26 15.40L215.26 15.40Q214.58 15.40 214.04 15.70Q213.51 16 213.21 16.54Q212.92 17.09 212.92 17.80L212.92 17.80Q212.92 18.51 213.21 19.05Q213.51 19.60 214.04 19.90Q214.58 20.20 215.26 20.20L215.26 20.20Q216.43 20.20 217.24 19.22L217.24 19.22L218.75 20.58Q218.14 21.35 217.22 21.76Q216.29 22.17 215.14 22.17L215.14 22.17Q213.82 22.17 212.77 21.61Q211.72 21.05 211.12 20.05Q210.52 19.06 210.52 17.80ZM225.08 15.48L222.50 15.48L222.50 13.60L230.02 13.60L230.02 15.48L227.45 15.48L227.45 22L225.08 22L225.08 15.48Z" fill="#FFFFFF" x="149.72"/></svg>