<svg xmlns="http://www.w3.org/2000/svg" width="203.34999999999997" height="35" viewBox="0 0 203.34999999999997 35"><rect class="svg__rect" x="0" y="0" width="100.24" height="35" fill="#31C4F3"/><rect class="svg__rect" x="98.24" y="0" width="105.10999999999999" height="35" fill="#389AD5"/><path class="svg__text" d="M15.69 22L14.22 22L14.22 13.47L16.14 13.47L18.60 20.01L21.06 13.47L22.97 13.47L22.97 22L21.49 22L21.49 19.19L21.64 15.43L19.12 22L18.06 22L15.55 15.43L15.69 19.19L15.69 22ZM29.75 18.86L26.89 13.47L28.53 13.47L30.49 17.51L32.46 13.47L34.10 13.47L31.24 18.86L31.24 22L29.75 22L29.75 18.86ZM45.47 22L43.99 22L43.99 13.47L49.41 13.47L49.41 14.66L45.47 14.66L45.47 17.20L48.90 17.20L48.90 18.38L45.47 18.38L45.47 22ZM55.13 22L53.66 22L53.66 13.47L55.13 13.47L55.13 22ZM61.43 22L59.94 22L59.94 13.47L62.94 13.47Q64.42 13.47 65.22 14.13Q66.03 14.79 66.03 16.05L66.03 16.05Q66.03 16.90 65.61 17.48Q65.20 18.06 64.46 18.37L64.46 18.37L66.38 21.92L66.38 22L64.79 22L63.08 18.71L61.43 18.71L61.43 22ZM61.43 14.66L61.43 17.52L62.95 17.52Q63.70 17.52 64.12 17.15Q64.54 16.77 64.54 16.11L64.54 16.11Q64.54 15.43 64.15 15.05Q63.76 14.68 62.99 14.66L62.99 14.66L61.43 14.66ZM69.99 19.42L69.99 19.42L71.47 19.42Q71.47 20.15 71.95 20.55Q72.43 20.95 73.33 20.95L73.33 20.95Q74.10 20.95 74.49 20.63Q74.88 20.32 74.88 19.80L74.88 19.80Q74.88 19.24 74.48 18.94Q74.09 18.63 73.06 18.32Q72.03 18.01 71.42 17.63L71.42 17.63Q70.25 16.90 70.25 15.72L70.25 15.72Q70.25 14.69 71.09 14.02Q71.93 13.35 73.27 13.35L73.27 13.35Q74.16 13.35 74.86 13.68Q75.56 14.01 75.96 14.61Q76.36 15.22 76.36 15.96L76.36 15.96L74.88 15.96Q74.88 15.29 74.46 14.91Q74.04 14.54 73.26 14.54L73.26 14.54Q72.54 14.54 72.13 14.85Q71.73 15.16 71.73 15.71L71.73 15.71Q71.73 16.18 72.17 16.50Q72.60 16.81 73.60 17.10Q74.59 17.40 75.20 17.78Q75.80 18.16 76.08 18.65Q76.36 19.13 76.36 19.79L76.36 19.79Q76.36 20.86 75.54 21.49Q74.73 22.12 73.33 22.12L73.33 22.12Q72.40 22.12 71.62 21.77Q70.85 21.43 70.42 20.83Q69.99 20.22 69.99 19.42ZM82.33 14.66L79.70 14.66L79.70 13.47L86.46 13.47L86.46 14.66L83.80 14.66L83.80 22L82.33 22L82.33 14.66Z" fill="#FFFFFF"/><path class="svg__text" d="M114.81 22L112.43 22L112.43 13.60L116.27 13.60Q117.41 13.60 118.25 13.98Q119.09 14.35 119.55 15.06Q120.00 15.76 120.00 16.71L120.00 16.71Q120.00 17.66 119.55 18.35Q119.09 19.05 118.25 19.42Q117.41 19.80 116.27 19.80L116.27 19.80L114.81 19.80L114.81 22ZM114.81 15.47L114.81 17.93L116.13 17.93Q116.86 17.93 117.23 17.61Q117.60 17.29 117.60 16.71L117.60 16.71Q117.60 16.12 117.23 15.80Q116.86 15.47 116.13 15.47L116.13 15.47L114.81 15.47ZM127.13 22L124.76 22L124.76 13.60L128.60 13.60Q129.74 13.60 130.58 13.98Q131.42 14.35 131.88 15.06Q132.33 15.76 132.33 16.71L132.33 16.71Q132.33 17.62 131.90 18.30Q131.48 18.98 130.69 19.36L130.69 19.36L132.50 22L129.95 22L128.43 19.77L127.13 19.77L127.13 22ZM127.13 15.47L127.13 17.93L128.45 17.93Q129.19 17.93 129.56 17.61Q129.93 17.29 129.93 16.71L129.93 16.71Q129.93 16.12 129.56 15.79Q129.19 15.47 128.45 15.47L128.45 15.47L127.13 15.47ZM136.69 17.80L136.69 17.80Q136.69 16.55 137.30 15.55Q137.90 14.56 138.96 14.00Q140.03 13.43 141.36 13.43L141.36 13.43Q142.69 13.43 143.75 14.00Q144.81 14.56 145.42 15.55Q146.03 16.55 146.03 17.80L146.03 17.80Q146.03 19.05 145.42 20.04Q144.81 21.04 143.75 21.60Q142.69 22.17 141.36 22.17L141.36 22.17Q140.03 22.17 138.96 21.60Q137.90 21.04 137.30 20.04Q136.69 19.05 136.69 17.80ZM139.09 17.80L139.09 17.80Q139.09 18.51 139.39 19.05Q139.69 19.60 140.21 19.90Q140.72 20.20 141.36 20.20L141.36 20.20Q141.99 20.20 142.51 19.90Q143.03 19.60 143.32 19.05Q143.62 18.51 143.62 17.80L143.62 17.80Q143.62 17.09 143.32 16.54Q143.03 16 142.51 15.70Q141.99 15.40 141.36 15.40L141.36 15.40Q140.72 15.40 140.20 15.70Q139.69 16 139.39 16.54Q139.09 17.09 139.09 17.80ZM149.68 20.93L149.68 20.93L150.97 19.40Q151.64 20.27 152.41 20.27L152.41 20.27Q152.42 20.27 152.42 20.27L152.42 20.27Q152.94 20.27 153.21 19.96Q153.48 19.65 153.48 19.05L153.48 19.05L153.48 15.44L150.58 15.44L150.58 13.60L155.83 13.60L155.83 18.91Q155.83 20.54 155.01 21.36Q154.19 22.17 152.59 22.17L152.59 22.17Q151.67 22.17 150.91 21.85Q150.16 21.53 149.68 20.93ZM167.66 22L160.92 22L160.92 13.60L167.51 13.60L167.51 15.44L163.28 15.44L163.28 16.85L167.01 16.85L167.01 18.63L163.28 18.63L163.28 20.17L167.66 20.17L167.66 22ZM172.04 17.80L172.04 17.80Q172.04 16.54 172.64 15.54Q173.24 14.55 174.29 13.99Q175.34 13.43 176.66 13.43L176.66 13.43Q177.81 13.43 178.74 13.84Q179.66 14.25 180.27 15.02L180.27 15.02L178.76 16.39Q177.95 15.40 176.78 15.40L176.78 15.40Q176.10 15.40 175.56 15.70Q175.03 16 174.73 16.54Q174.44 17.09 174.44 17.80L174.44 17.80Q174.44 18.51 174.73 19.05Q175.03 19.60 175.56 19.90Q176.10 20.20 176.78 20.20L176.78 20.20Q177.95 20.20 178.76 19.22L178.76 19.22L180.27 20.58Q179.66 21.35 178.74 21.76Q177.81 22.17 176.66 22.17L176.66 22.17Q175.34 22.17 174.29 21.61Q173.24 21.05 172.64 20.05Q172.04 19.06 172.04 17.80ZM186.60 15.48L184.02 15.48L184.02 13.60L191.54 13.60L191.54 15.48L188.97 15.48L188.97 22L186.60 22L186.60 15.48Z" fill="#FFFFFF" x="111.24"/></svg>